<svg width="125" height="124" viewBox="0 0 125 124" fill="none" xmlns="http://www.w3.org/2000/svg">
<path d="M7.70703 74.3539C10.0918 67.7942 13.8863 61.8373 18.8231 56.9033C23.7598 51.969 29.7186 48.1776 36.2796 45.7964" stroke="#589BD4" stroke-width="4.33896" stroke-linecap="round" stroke-linejoin="round"/>
<path d="M68.5352 25.7496C69.1869 22.9355 70.8547 20.4611 73.2187 18.8011C75.5826 17.141 78.4762 16.4122 81.3444 16.7545" stroke="#589BD4" stroke-width="2.16948" stroke-linecap="round" stroke-linejoin="round"/>
<path d="M106.572 72.5269C107.369 73.8829 107.637 75.4853 107.325 77.027C107.013 78.5686 106.142 79.9409 104.881 80.8803" stroke="#589BD4" stroke-width="2.16948" stroke-linecap="round" stroke-linejoin="round"/>
<path d="M60.8389 100.193C62.7273 97.019 65.6653 94.605 69.1449 93.3678C72.6246 92.1308 76.427 92.1483 79.8952 93.4176" stroke="#589BD4" stroke-width="2.16948" stroke-linecap="round" stroke-linejoin="round"/>
<path d="M74.7119 70.4196C75.3092 68.9647 76.4227 67.7814 77.839 67.097C79.2553 66.4124 80.8741 66.275 82.3854 66.7111" stroke="#589BD4" stroke-width="2.16948" stroke-linecap="round" stroke-linejoin="round"/>
<path d="M40.355 90.9824C39.0416 91.4176 37.6122 91.3404 36.3533 90.7658C35.0947 90.1913 34.0999 89.1618 33.5684 87.8843" stroke="#589BD4" stroke-width="1.36865" stroke-linecap="round" stroke-linejoin="round"/>
<path d="M65.1329 84.2098L72.8951 65.0448C73.5526 63.421 75.1296 62.3582 76.8817 62.3582H83.3653C85.4137 62.3582 87.1277 61.7313 88.5054 60.476L88.4802 60.4483L88.5057 60.476C89.9135 59.1905 90.6186 57.6278 90.6186 55.79C90.6186 54.3214 90.19 53.2134 89.3266 52.4735C88.4646 51.7347 87.1757 51.3684 85.4662 51.3684H81.6159C80.1014 51.3684 79.0697 49.8333 79.642 48.431L84.3081 36.9945C84.9686 35.376 86.5428 34.318 88.2908 34.318H106.108C108.126 34.318 109.84 33.6909 111.248 32.4361L111.248 32.4358C112.656 31.1507 113.361 29.6183 113.361 27.8413C113.361 26.3393 112.828 25.208 111.758 24.4539C110.691 23.7015 109.095 23.3281 106.976 23.3281H83.5482C80.9896 23.3281 79.1542 23.6476 78.0492 24.2922C76.9723 24.9075 76.0855 26.1655 75.3839 28.0561L74.8819 29.3345L67.17 48.7348C66.5347 50.3329 65.0084 51.3991 63.2891 51.4456L57.7001 51.5967C57.6998 51.5967 57.6995 51.5967 57.6995 51.5967C52.8547 51.5967 47.9342 52.3738 42.938 53.9275C37.9723 55.4812 33.6148 57.5835 29.8663 60.2348L29.866 60.2351C25.4474 63.4044 22.0032 67.1835 19.5343 71.5728L19.5342 71.573C17.0956 75.9626 15.876 80.5659 15.876 85.383C15.876 91.5729 17.9498 96.6977 22.0982 100.754C26.2464 104.842 31.4775 106.885 37.7886 106.885C43.8255 106.885 49.1238 104.994 53.6822 101.213C58.2401 97.4329 62.0565 91.7639 65.1329 84.2098ZM54.7424 79.3407C50.5116 89.7805 45.1167 94.9814 38.5649 94.9814C35.7441 94.9814 33.3796 93.9357 31.4687 91.8428C29.5879 89.7496 28.6468 87.1557 28.6468 84.0587C28.6468 78.2893 31.6524 73.1084 37.6745 68.5157C42.8543 64.565 48.9847 63.0819 55.2737 62.5834C58.3151 62.3423 60.4021 65.4524 59.2486 68.2828L54.7424 79.3407Z" fill="#589BD4" stroke="#589BD4" stroke-width="0.0751801"/>
<path d="M118.49 30.2217C118.586 31.4614 118.417 32.7074 117.995 33.8771C117.573 35.0467 116.907 36.1132 116.042 37.0064C115.177 37.8996 114.132 38.5989 112.976 39.058C111.821 39.517 110.581 39.7256 109.339 39.6695" stroke="#589BD4" stroke-width="2.16948" stroke-linecap="round" stroke-linejoin="round"/>
<path d="M100.307 87.7922L98.219 82.1112C98.1829 82.0129 98.2059 81.9026 98.2784 81.827L103.025 76.8823C103.574 76.3056 103.849 75.817 103.849 75.4168C103.849 75.0911 103.74 74.8231 103.523 74.6126C103.306 74.3955 103.035 74.2871 102.709 74.2871C102.234 74.2871 101.709 74.589 101.132 75.1929L96.7326 79.7929C96.526 80.0089 96.172 79.7844 96.2793 79.5052L97.5128 76.302L97.6247 76.0272C97.7331 75.7628 97.7876 75.5287 97.7876 75.3251C97.7876 75.0604 97.6858 74.8332 97.4821 74.6432C97.2787 74.4533 97.0343 74.3583 96.7493 74.3583C96.0642 74.3583 95.5655 74.7382 95.2534 75.4981L95.1414 75.7729L90.7856 86.51L90.6736 86.7848C90.5649 87.0424 90.5107 87.2699 90.5107 87.4667C90.5107 87.7243 90.609 87.9449 90.8058 88.128C91.0095 88.3046 91.2572 88.3927 91.5487 88.3927C92.2544 88.3927 92.7904 87.9416 93.1569 87.0391L95.102 82.453C95.1989 82.225 95.5247 82.2327 95.6106 82.4651L98.0685 89.1052C98.3668 89.8922 98.6994 90.4079 99.0657 90.6521C99.4322 90.9031 100.063 91.0288 100.959 91.0288H104.337C104.941 91.0288 105.413 90.8963 105.752 90.6318C106.091 90.374 106.261 90.0143 106.261 89.5528C106.261 88.8813 105.783 88.5455 104.826 88.5455H101.529C100.904 88.5455 100.497 88.2945 100.307 87.7922Z" fill="#589BD4"/>
<path d="M86.7267 86.0318H87.8767C88.7315 86.0318 89.1591 86.3338 89.1591 86.9376C89.1591 87.3515 89.0064 87.6737 88.7012 87.9044C88.4025 88.1352 87.9818 88.2504 87.4393 88.2504H85.821C85.224 88.2504 84.7523 88.1283 84.4063 87.8842C84.0672 87.6397 83.8975 87.3074 83.8975 86.8867C83.8975 86.6628 83.9686 86.3778 84.1112 86.0318L85.7903 81.8999L85.9023 81.6149C86.2146 80.8482 86.7166 80.465 87.4086 80.465C87.6936 80.465 87.9377 80.56 88.1414 80.7499C88.3516 80.9399 88.457 81.1671 88.457 81.4318C88.457 81.6489 88.3653 81.9812 88.1822 82.429L86.7267 86.0318ZM88.0702 77.2183C88.4636 77.2183 88.7961 77.3573 89.0674 77.6357C89.3458 77.907 89.4848 78.2396 89.4848 78.6329C89.4848 79.0265 89.3458 79.3624 89.0674 79.6405C88.7961 79.9118 88.4636 80.0475 88.0702 80.0475C87.6766 80.0475 87.3407 79.9118 87.0626 79.6405C86.7911 79.3624 86.6556 79.0265 86.6556 78.6329C86.6556 78.2396 86.7911 77.907 87.0626 77.6357C87.3407 77.3573 87.6766 77.2183 88.0702 77.2183Z" fill="#589BD4"/>
<path d="M80.4882 82.4899L81.6384 81.1873C82.147 80.6105 82.6222 80.3223 83.0632 80.3223C83.3684 80.3223 83.623 80.4241 83.8264 80.6275C84.03 80.8243 84.1318 81.072 84.1318 81.3707C84.1318 81.7845 83.8636 82.2595 83.3276 82.7954L81.5875 84.5153L82.4322 86.4897L82.5237 86.6933C82.5984 86.8628 82.6356 87.0292 82.6356 87.1918C82.6356 87.4973 82.4999 87.7754 82.2286 88.0264C81.9639 88.2709 81.6655 88.3929 81.3329 88.3929C80.9327 88.3929 80.6171 88.1485 80.3864 87.6602L79.7554 86.2759L78.5647 87.5381L78.3509 87.762C77.9507 88.1824 77.5437 88.3929 77.1298 88.3929C76.8243 88.3929 76.57 88.2944 76.3664 88.0976C76.1698 87.8942 76.0713 87.6432 76.0713 87.3445C76.0713 86.9715 76.3291 86.5204 76.8448 85.991L78.6564 84.1285L77.8727 82.3068C77.7438 82.0016 77.6795 81.764 77.6795 81.5946C77.6795 81.2688 77.8117 80.977 78.0764 80.7192C78.3476 80.4545 78.6496 80.3223 78.9821 80.3223C79.3892 80.3223 79.7081 80.6039 79.9386 81.167L80.4882 82.4899Z" fill="#589BD4"/>
<path d="M72.8548 80.3223C73.8386 80.3223 74.6461 80.6343 75.2771 81.2587C75.9149 81.8828 76.2338 82.6766 76.2338 83.6402C76.2338 84.3661 76.0676 85.0887 75.735 85.8078C75.4027 86.5204 74.9719 87.0903 74.4425 87.5176C74.0899 87.7957 73.7234 87.9892 73.3434 88.0976C72.9703 88.1994 72.4445 88.2503 71.7659 88.2503C70.6601 88.2503 69.9136 88.1181 69.5271 87.8534C68.6178 87.2293 68.1631 86.3066 68.1631 85.0852C68.1631 83.7962 68.6279 82.6799 69.5575 81.7369C70.4871 80.7939 71.5861 80.3223 72.8548 80.3223ZM72.6107 82.4899C72.1086 82.4899 71.6507 82.7377 71.2368 83.2328C70.8229 83.7283 70.616 84.2744 70.616 84.8714C70.616 85.6586 71.057 86.052 71.9389 86.052C72.4546 86.052 72.8515 85.8927 73.1297 85.5738C73.5912 85.0512 73.8216 84.4542 73.8216 83.7825C73.8216 83.3957 73.7097 83.0837 73.4861 82.8463C73.2621 82.6087 72.9703 82.4899 72.6107 82.4899Z" fill="#589BD4"/>
</svg>
