<svg width="20" height="20" viewBox="0 0 20 20" fill="none" xmlns="http://www.w3.org/2000/svg">
<path d="M2.5 7.96169C2.5 6.09193 2.5 5.15704 2.8698 4.44289C3.19508 3.8147 3.71413 3.30396 4.35253 2.98388C5.0783 2.62 6.02839 2.62 7.92855 2.62H12.0714C13.9716 2.62 14.9217 2.62 15.6474 2.98388C16.2859 3.30396 16.8049 3.8147 17.1302 4.44289C17.5 5.15704 17.5 6.09193 17.5 7.96169V12.0383C17.5 13.9081 17.5 14.843 17.1302 15.5571C16.8049 16.1853 16.2859 16.696 15.6474 17.0161C14.9217 17.38 13.9716 17.38 12.0714 17.38H7.92855C6.02839 17.38 5.0783 17.38 4.35253 17.0161C3.71413 16.696 3.19508 16.1853 2.8698 15.5571C2.5 14.843 2.5 13.9081 2.5 12.0383V7.96169Z" fill="#330000"/>
<path d="M9.76888 11.8958H7.44447L6.97154 13.3785C6.95841 13.4335 6.90688 13.4725 6.85079 13.4698H5.67347C5.60633 13.4698 5.58285 13.4326 5.60304 13.3581L7.61552 7.50861C7.63566 7.44767 7.65581 7.3783 7.6759 7.30044C7.70225 7.16491 7.7157 7.02722 7.71618 6.88916C7.7104 6.84836 7.74682 6.81233 7.78657 6.81804H9.38654C9.43341 6.81804 9.4602 6.83497 9.467 6.86882L11.7512 13.3683C11.7713 13.436 11.7512 13.4699 11.6909 13.4698H10.3827C10.3368 13.475 10.293 13.444 10.2821 13.3987L9.76888 11.8958ZM7.80672 10.6162H9.39661C9.1354 9.73784 8.84059 8.87106 8.60166 7.98594C8.34388 8.87259 8.06263 9.75566 7.80672 10.6162Z" fill="#FF9A00"/>
<path d="M13.1096 7.89448C13.0069 7.89865 12.9046 7.88088 12.8092 7.8424C12.7138 7.80392 12.6276 7.74551 12.5561 7.67108C12.4849 7.59338 12.4295 7.50229 12.3932 7.40292C12.3569 7.30361 12.3405 7.19802 12.3448 7.09223C12.3411 6.98748 12.3594 6.88316 12.3984 6.78604C12.4375 6.68891 12.4963 6.60119 12.5712 6.52859C12.6454 6.45675 12.7329 6.40046 12.8288 6.36299C12.9246 6.32551 13.0269 6.30759 13.1297 6.31026C13.3712 6.31026 13.5607 6.38304 13.6982 6.52859C13.7676 6.60424 13.8216 6.69296 13.857 6.78967C13.8924 6.88638 13.9085 6.98922 13.9045 7.09223C13.9087 7.19839 13.8917 7.3044 13.8545 7.40382C13.8174 7.50324 13.7608 7.59412 13.6881 7.67108C13.6122 7.74662 13.5216 7.80545 13.422 7.84393C13.3225 7.88236 13.2161 7.8996 13.1096 7.89448ZM12.4152 13.3682V8.51398C12.4152 8.45304 12.442 8.42258 12.4957 8.42258H13.7335C13.787 8.42258 13.8139 8.45304 13.8139 8.51398V13.3682C13.8139 13.436 13.7871 13.4699 13.7335 13.4698H12.5058C12.4454 13.4698 12.4152 13.436 12.4152 13.3682Z" fill="#FF9A00"/>
</svg>
