<svg width="11" height="11" viewBox="0 0 11 11" fill="none" xmlns="http://www.w3.org/2000/svg">
<path d="M2.75 1C1.99375 1 1.32 1.31651 0.81125 1.81192C0.31625 2.30733 0 2.98164 0 3.75228C0 4.50915 0.31625 5.18346 0.81125 5.69263L5.1463 10.0313C5.3416 10.2267 5.6584 10.2267 5.8537 10.0313L10.1887 5.69263C10.6837 5.19722 11 4.52291 11 3.75228C11 2.9954 10.6837 2.32109 10.1887 1.81192C9.69375 1.31651 9.02 1 8.25 1C7.49375 1 6.82 1.31651 6.31125 1.81192C5.99212 2.13132 5.74728 2.8454 5.61359 3.31249C5.58409 3.41555 5.41522 3.41574 5.38551 3.31274C5.25163 2.84854 5.00717 2.13946 4.68875 1.81192C4.19375 1.31651 3.52 1 2.75 1Z" fill="#F6ED1E"/>
</svg>
