<svg width="20" height="20" viewBox="0 0 20 20" fill="none" xmlns="http://www.w3.org/2000/svg">
<path d="M2.5 15.1545C2.5 15.697 2.94317 16.1364 3.4892 16.1364H3.50342C2.94903 16.1364 2.5 15.697 2.5 15.1545Z" fill="#FBBC05"/>
<path d="M11.0005 7.54533V10.1087L14.4564 7.32115V4.84532C14.4564 4.30286 14.0133 3.86349 13.4672 3.86349L5.98008 3.86349L5.97339 7.54533L11.0005 7.54533Z" fill="#FBBC05"/>
<path d="M11.0007 12.6731H5.96527L5.95941 16.1365H13.4675C14.0143 16.1365 14.4567 15.6972 14.4567 15.1547V12.9194L11.0007 10.1098V12.6731V12.6731Z" fill="#34A853"/>
<path d="M5.98018 3.86349L2.5 7.54533H5.97433L5.98018 3.86349Z" fill="#EA4335"/>
<path d="M2.5 12.6729L2.5 15.1545C2.5 15.697 2.94903 16.1363 3.50342 16.1363H5.95928L5.96513 12.6729H2.5V12.6729Z" fill="#1967D2"/>
<path d="M5.97433 7.54532L2.5 7.54532L2.5 12.6729H5.96513L5.97433 7.54532Z" fill="#4285F4"/>
<path d="M17.4951 14.2817V5.85437C17.3002 4.73591 16.0735 6.01801 16.0735 6.01801L14.4572 7.32138L14.4572 12.9186L16.7709 14.7996C17.6063 14.9092 17.4951 14.2817 17.4951 14.2817Z" fill="#34A853"/>
<path d="M11.0005 10.1087L14.4573 12.9192V7.32199L11.0005 10.1087Z" fill="#188038"/>
</svg>
