<svg width="20" height="20" viewBox="0 0 20 20" fill="none" xmlns="http://www.w3.org/2000/svg">
<path d="M5.28688 5.12984C5.75313 5.50859 5.92813 5.47984 6.80437 5.42109L15.0637 4.92546C15.2387 4.92546 15.0931 4.75047 15.035 4.72172L13.6625 3.72984C13.4 3.52609 13.0494 3.29234 12.3781 3.35047L4.38126 3.93422C4.09001 3.96297 4.03126 4.10922 4.14751 4.22547L5.28688 5.12984ZM5.7825 7.05484L5.7825 15.7448C5.7825 16.2117 6.01563 16.3867 6.54125 16.3573L15.6181 15.8323C16.1437 15.8036 16.2025 15.4823 16.2025 15.1029V6.47109C16.2025 6.09234 16.0569 5.88796 15.735 5.91671L6.24938 6.47109C5.89938 6.50046 5.7825 6.67609 5.7825 7.05484ZM14.7431 7.52046C14.8012 7.78296 14.7431 8.04546 14.4806 8.07546L14.0431 8.16296V14.5779C13.6631 14.7823 13.3131 14.8992 13.0212 14.8992C12.5537 14.8992 12.4369 14.7529 12.0869 14.3161L9.22624 9.82483L9.22624 14.1698L10.1312 14.3748C10.1312 14.3748 10.1312 14.8998 9.40124 14.8998L7.3875 15.0161C7.32937 14.8998 7.3875 14.6079 7.59187 14.5498L8.11687 14.4042L8.11687 8.65858L7.38875 8.59983C7.33 8.33733 7.47625 7.95858 7.88437 7.92921L10.0444 7.78358L13.0219 12.3329V8.30796L12.2625 8.22108C12.2044 7.89983 12.4375 7.66671 12.7294 7.63796L14.7431 7.52046ZM3.71001 3.14672L12.0287 2.53422C13.05 2.44672 13.3131 2.50484 13.955 2.97172L16.6106 4.83797C17.0481 5.15859 17.1944 5.24609 17.1944 5.59609V15.8323C17.1944 16.4736 16.9612 16.8536 16.1444 16.9111L6.48313 17.4948C5.87063 17.5242 5.57813 17.4367 5.25688 17.0279L3.30126 14.4904C2.95126 14.0236 2.80563 13.6742 2.80563 13.2654L2.80563 4.16672C2.80563 3.64234 3.03938 3.20422 3.71001 3.14672Z" fill="black"/>
</svg>
