<svg width="20" height="20" viewBox="0 0 20 20" fill="none" xmlns="http://www.w3.org/2000/svg">
<path d="M2.5 7.92855C2.5 6.02839 2.5 5.0783 2.8698 4.35253C3.19508 3.71413 3.71413 3.19508 4.35253 2.8698C5.0783 2.5 6.02839 2.5 7.92855 2.5H12.0714C13.9716 2.5 14.9217 2.5 15.6474 2.8698C16.2859 3.19508 16.8049 3.71413 17.1302 4.35253C17.5 5.0783 17.5 6.02839 17.5 7.92855V12.0714C17.5 13.9716 17.5 14.9217 17.1302 15.6474C16.8049 16.2859 16.2859 16.8049 15.6474 17.1302C14.9217 17.5 13.9716 17.5 12.0714 17.5H7.92855C6.02839 17.5 5.0783 17.5 4.35253 17.1302C3.71413 16.8049 3.19508 16.2859 2.8698 15.6474C2.5 14.9217 2.5 13.9716 2.5 12.0714V7.92855Z" fill="#001E36"/>
<path d="M5.71429 13.4908V6.89468C5.71429 6.84985 5.73304 6.82419 5.7768 6.82419C6.42267 6.82419 7.06826 6.78572 7.71428 6.78572C8.76262 6.78572 9.89769 7.14417 10.2956 8.24083C10.3893 8.51008 10.4393 8.7857 10.4393 9.07419C10.4393 9.62549 10.3143 10.0806 10.0643 10.4396C9.36594 11.4423 8.15554 11.4267 7.07056 11.4267V13.4845C7.07903 13.5454 7.02712 13.5742 6.97681 13.5742H5.78929C5.7393 13.5742 5.71429 13.5485 5.71429 13.4908ZM7.07678 8.06136V10.2152C7.50701 10.2467 7.95717 10.2501 8.37053 10.1127C8.8269 9.98099 9.07681 9.58601 9.07681 9.11265C9.08946 8.70931 8.86971 8.32231 8.49556 8.17676C8.08719 8.00693 7.51762 7.99676 7.07678 8.06136Z" fill="#31A8FF"/>
<path d="M14.3375 9.78968C14.1484 9.68999 13.947 9.61707 13.7387 9.57293C13.4712 9.50999 12.416 9.28949 12.4155 9.84127C12.4249 10.1493 12.9139 10.3002 13.1299 10.3882C13.8885 10.6486 14.7468 11.1141 14.7299 12.0499C14.7531 13.2147 13.6245 13.6804 12.657 13.6805C12.1534 13.6857 11.6287 13.6077 11.1678 13.3915C11.1238 13.3682 11.0955 13.3184 11.0973 13.2676V12.153C11.0924 12.1084 11.1404 12.0693 11.1779 12.1015C11.6295 12.3746 12.1648 12.5072 12.6872 12.5143C12.9179 12.5143 13.3749 12.4919 13.3715 12.153C13.3715 11.8279 12.8247 11.6783 12.6067 11.5957C12.2908 11.483 11.9912 11.3267 11.7162 11.1313C11.3319 10.8572 11.0908 10.4177 11.0973 9.93416C11.0951 8.83734 12.134 8.34502 13.0696 8.34481C13.507 8.34116 13.9767 8.37357 14.3838 8.55122C14.4424 8.56841 14.4545 8.63013 14.4543 8.68536V9.72775C14.458 9.79247 14.3861 9.81449 14.3375 9.78968Z" fill="#31A8FF"/>
</svg>
