<svg width="20" height="20" viewBox="0 0 20 20" fill="none" xmlns="http://www.w3.org/2000/svg">
<path d="M2.5 7.96169C2.5 6.09193 2.5 5.15704 2.8698 4.44289C3.19508 3.8147 3.71413 3.30396 4.35253 2.98388C5.0783 2.62 6.02839 2.62 7.92855 2.62H12.0714C13.9716 2.62 14.9217 2.62 15.6474 2.98388C16.2859 3.30396 16.8049 3.8147 17.1302 4.44289C17.5 5.15704 17.5 6.09193 17.5 7.96169V12.0383C17.5 13.9081 17.5 14.843 17.1302 15.5571C16.8049 16.1853 16.2859 16.696 15.6474 17.0161C14.9217 17.38 13.9716 17.38 12.0714 17.38H7.92855C6.02839 17.38 5.0783 17.38 4.35253 17.0161C3.71413 16.696 3.19508 16.1853 2.8698 15.5571C2.5 14.843 2.5 13.9081 2.5 12.0383V7.96169Z" fill="#00005B"/>
<path d="M5.71429 13.0552V6.41962C5.71429 6.37448 5.7331 6.34869 5.77698 6.34869C6.42478 6.34869 7.07228 6.31 7.72028 6.31C8.77167 6.31 9.91017 6.67058 10.3092 7.77382C10.4032 8.04467 10.4534 8.32194 10.4534 8.61214C10.4534 9.16669 10.328 9.62451 10.0773 9.98566C9.37687 10.9944 8.16283 10.9787 7.07458 10.9787V13.0487C7.0831 13.11 7.03103 13.139 6.98056 13.139H5.78952C5.73937 13.139 5.71429 13.1132 5.71429 13.0552ZM7.08085 7.59327V9.75994C7.51237 9.79167 7.96387 9.7951 8.37845 9.65677C8.83617 9.52436 9.08683 9.127 9.08683 8.65083C9.09958 8.24509 8.87913 7.85574 8.50387 7.70935C8.09426 7.5385 7.52303 7.52828 7.08085 7.59327Z" fill="#9999FF"/>
<path d="M11.3031 8.00312H12.4033C12.4639 8.0037 12.5184 8.04677 12.5344 8.10697C12.615 8.2911 12.625 8.51318 12.6253 8.71197C12.8139 8.48598 13.0414 8.29774 13.2964 8.15652C13.5699 7.99737 13.8799 7.91667 14.194 7.92294C14.2462 7.91525 14.2924 7.96274 14.2849 8.01635V9.27259C14.2849 9.32114 14.2512 9.34528 14.184 9.34528C13.7183 9.31223 12.9934 9.4254 12.655 9.8021V13.0685C12.655 13.1308 12.6282 13.162 12.5743 13.162H11.394C11.336 13.1705 11.2849 13.1168 11.293 13.0581V9.51138C11.293 9.03616 11.3031 8.5466 11.2325 8.07581C11.2216 8.03248 11.2619 7.99221 11.3031 8.00312Z" fill="#9999FF"/>
</svg>
