<svg width="20" height="20" viewBox="0 0 20 20" fill="none" xmlns="http://www.w3.org/2000/svg">
<path fill-rule="evenodd" clip-rule="evenodd" d="M3 1C1.89543 1 1 1.89543 1 3L1 17C1 18.1046 1.89543 19 3 19L17 19C18.1046 19 19 18.1046 19 17L19 3C19 1.89543 18.1046 1 17 1L3 1Z" fill="white"/>
<path fill-rule="evenodd" clip-rule="evenodd" d="M3 1C1.89543 1 1 1.89543 1 3L1 17C1 18.1046 1.89543 19 3 19L17 19C18.1046 19 19 18.1046 19 17L19 3C19 1.89543 18.1046 1 17 1L3 1ZM13.401 8.34323C13.401 8.34323 12.428 11.2821 12.3485 11.5248C12.1035 9.68293 11.8561 7.84132 11.6065 6C9.9485 6 9.062 7.13646 8.5935 8.336L7.311 11.5321C7.3035 11.3028 7.131 8.37067 7.131 8.37067C7.029 6.90098 5.631 6.00626 4.5 6.00626L5.8695 14C7.6065 13.9928 8.543 12.8631 9.0335 11.6635C9.0335 11.6635 10.0785 9.06411 10.1215 8.94613C10.129 9.05688 10.8715 13.9995 10.8715 13.9995C12.6155 13.9995 13.5525 12.9391 14.0565 11.7815L16.5 6.00674C14.7775 6.00674 13.8695 7.13694 13.401 8.34323Z" fill="#4353FF"/>
</svg>
