<svg width="20" height="20" viewBox="0 0 20 20" fill="none" xmlns="http://www.w3.org/2000/svg">
<path d="M2.62461 10C2.62461 12.9227 4.32462 15.44 6.78307 16.6365L3.26538 6.99885C2.84298 7.943 2.62463 8.96567 2.62461 10ZM10 17.3754C10.8565 17.3754 11.6804 17.225 12.4519 16.9569L12.3996 16.8589L10.1308 10.6473L7.92076 17.0746C8.57462 17.2708 9.27424 17.3754 10 17.3754ZM11.0135 6.54115L13.6811 14.4723L14.42 12.0139C14.7339 10.9939 14.9758 10.2615 14.9758 9.62731C14.9758 8.71193 14.6489 8.08424 14.3742 7.60038C13.995 6.98576 13.6485 6.46924 13.6485 5.86769C13.6485 5.18769 14.1585 4.56 14.8908 4.56H14.9823C13.6233 3.3124 11.8448 2.62154 10 2.62461C8.7785 2.62439 7.57609 2.92782 6.50096 3.50762C5.42581 4.08742 4.51167 4.92538 3.84076 5.94615L4.31154 5.95924C5.08307 5.95924 6.27307 5.86115 6.27307 5.86115C6.67846 5.84154 6.72424 6.42346 6.32538 6.46924C6.32538 6.46924 5.92655 6.52154 5.47538 6.54115L8.16924 14.5311L9.78424 9.69269L8.63345 6.54115C8.3757 6.52693 8.11841 6.50512 7.86193 6.47576C7.46307 6.44962 7.50885 5.84154 7.90769 5.86115C7.90769 5.86115 9.12385 5.95924 9.84962 5.95924C10.6211 5.95924 11.8111 5.86115 11.8111 5.86115C12.21 5.84154 12.2623 6.42346 11.8635 6.46924C11.8635 6.46924 11.4646 6.515 11.0135 6.54115ZM13.7073 16.375C14.8231 15.7262 15.749 14.796 16.3927 13.6774C17.0364 12.5587 17.3752 11.2907 17.3754 10C17.3754 8.71845 17.0485 7.51538 16.4731 6.46269C16.5899 7.62083 16.4146 8.7898 15.9631 9.86269L13.7073 16.375ZM10 18.5C7.74566 18.5 5.58365 17.6045 3.9896 16.0104C2.39553 14.4163 1.5 12.2543 1.5 10C1.5 7.74566 2.39553 5.58365 3.9896 3.9896C5.58365 2.39553 7.74566 1.5 10 1.5C12.2543 1.5 14.4163 2.39553 16.0104 3.9896C17.6045 5.58365 18.5 7.74566 18.5 10C18.5 12.2543 17.6045 14.4163 16.0104 16.0104C14.4163 17.6045 12.2543 18.5 10 18.5Z" fill="#126FC2"/>
</svg>
